<svg id="svg" version="1.1" xmlns="http://www.w3.org/2000/svg" xmlns:xlink="http://www.w3.org/1999/xlink" width="400" height="400" viewBox="0, 0, 400,400"><g id="svgg"><path id="path0" d="M83.704 199.259 L 83.704 339.259 125.370 339.259 L 167.037 339.259 167.037 327.399 L 167.037 315.539 173.796 315.640 L 180.556 315.741 180.653 327.833 L 180.751 339.925 185.838 340.233 C 231.450 343.001,266.010 334.812,294.325 314.527 C 326.138 291.736,345.557 258.952,350.535 219.630 C 360.666 139.603,318.375 79.355,241.111 63.741 C 220.286 59.533,214.251 59.259,142.366 59.259 L 83.704 59.259 83.704 199.259 M212.407 72.535 C 235.269 74.737,250.187 77.956,265.370 83.964 C 305.737 99.935,332.243 133.662,337.934 176.296 C 348.385 254.585,302.133 317.256,226.852 326.815 C 217.535 327.998,202.427 328.529,195.833 327.907 L 193.333 327.671 193.333 299.021 L 193.333 270.370 197.870 270.367 C 248.970 270.332,279.236 243.055,279.256 197.022 C 279.272 160.382,259.733 136.832,223.210 129.468 C 211.917 127.191,203.090 126.687,174.352 126.675 L 154.074 126.667 154.074 202.759 L 154.074 278.852 138.426 278.967 C 123.095 279.079,122.736 279.099,120.736 279.929 C 105.014 286.453,105.049 307.833,120.791 314.526 C 122.738 315.354,123.089 315.373,138.426 315.482 L 154.074 315.593 154.074 320.945 L 154.074 326.296 125.185 326.296 L 96.296 326.296 96.296 199.055 L 96.296 71.814 152.130 71.960 C 190.505 72.061,209.353 72.240,212.407 72.535 M208.148 140.014 C 247.314 143.524,266.667 162.332,266.667 196.885 C 266.667 238.398,242.615 257.759,191.024 257.775 L 180.752 257.778 180.654 268.241 L 180.556 278.704 173.796 278.805 L 167.037 278.906 167.037 209.268 L 167.037 139.630 185.463 139.631 C 195.597 139.632,205.806 139.804,208.148 140.014 M134.011 288.857 C 139.540 291.677,140.816 299.517,136.448 303.834 C 130.175 310.035,119.653 305.098,120.471 296.338 C 121.084 289.768,128.148 285.866,134.011 288.857 " stroke="none" fill="#64142c" fill-rule="evenodd"></path><path id="path1" d="M96.667 199.035 L 96.667 325.881 98.241 326.104 C 99.106 326.226,111.981 326.278,126.852 326.219 L 153.889 326.111 153.889 321.111 L 153.889 316.111 138.704 315.923 C 121.463 315.709,120.951 315.628,116.611 312.437 C 103.402 302.726,107.696 282.223,123.629 278.925 C 124.855 278.671,130.939 278.519,139.833 278.519 L 154.074 278.519 154.074 202.563 L 154.074 126.608 181.204 126.773 C 212.520 126.962,215.502 127.191,228.163 130.370 C 262.482 138.988,280.816 163.919,279.505 200.185 C 277.861 245.626,249.933 269.044,195.275 270.810 L 193.329 270.873 193.424 299.233 L 193.519 327.593 203.148 327.710 C 223.826 327.962,244.756 324.727,257.963 319.237 C 258.574 318.983,259.262 318.735,259.493 318.686 C 262.584 318.029,276.218 311.072,282.550 306.920 C 311.674 287.825,330.676 259.108,336.637 225.185 C 338.376 215.284,339.529 200.409,339.105 193.333 C 338.989 191.398,338.803 188.148,338.692 186.111 C 336.350 143.165,312.725 106.965,275.000 88.515 C 269.762 85.954,262.854 82.994,261.704 82.819 C 261.480 82.785,261.130 82.656,260.926 82.532 C 257.870 80.678,239.017 76.116,227.593 74.466 C 213.341 72.408,215.338 72.466,153.796 72.323 L 96.667 72.189 96.667 199.035 M138.924 101.210 C 141.062 102.660,141.438 106.244,139.661 108.235 L 138.582 109.444 134.013 109.630 L 129.444 109.815 129.259 114.314 C 129.032 119.837,127.907 121.486,124.370 121.479 C 120.685 121.472,120.029 119.871,120.013 110.846 L 120.000 103.359 121.130 102.072 C 122.521 100.488,122.824 100.441,131.296 100.507 C 136.992 100.551,138.103 100.654,138.924 101.210 M183.231 101.407 C 185.714 103.178,185.708 107.388,183.221 108.905 C 181.638 109.870,157.778 110.032,155.957 109.090 C 152.416 107.259,153.435 101.425,157.435 100.631 C 160.892 99.945,182.074 100.582,183.231 101.407 M216.111 101.112 C 227.679 102.171,229.726 103.172,229.147 107.488 C 228.725 110.636,226.674 111.640,221.775 111.097 C 218.189 110.700,204.029 109.659,201.957 109.640 C 197.898 109.604,196.471 102.949,200.141 101.171 C 201.168 100.673,210.928 100.637,216.111 101.112 M252.305 108.697 C 253.787 109.243,255.333 109.837,255.741 110.018 C 256.148 110.199,257.731 110.901,259.259 111.576 C 269.624 116.162,271.816 118.117,270.716 121.790 C 269.663 125.303,266.313 125.889,261.868 123.337 C 258.185 121.224,255.344 119.951,248.708 117.440 C 241.681 114.782,240.152 112.905,242.041 109.252 C 243.476 106.477,245.915 106.346,252.305 108.697 M288.033 131.522 C 293.019 136.379,300.843 146.712,301.836 149.753 C 302.865 152.903,300.713 155.564,297.148 155.547 C 294.852 155.537,294.379 155.120,291.345 150.434 C 288.668 146.301,286.317 143.309,282.997 139.815 C 279.763 136.410,279.259 135.627,279.259 134.006 C 279.259 129.025,284.070 127.663,288.033 131.522 M127.259 139.083 C 129.164 140.286,129.259 141.089,129.259 155.901 C 129.259 170.684,129.159 171.563,127.346 172.713 C 124.900 174.263,121.215 173.375,120.400 171.037 C 120.140 170.292,120.000 164.859,120.000 155.529 L 120.000 141.168 120.957 140.031 C 122.484 138.216,125.233 137.802,127.259 139.083 M308.955 167.641 C 310.700 169.195,312.003 174.198,313.688 185.812 C 314.965 194.617,313.792 197.778,309.247 197.778 C 306.459 197.778,305.432 196.257,304.871 191.296 C 304.063 184.140,303.377 179.897,302.417 176.113 C 301.011 170.569,301.220 169.170,303.709 167.478 C 305.240 166.438,307.690 166.515,308.955 167.641 M127.623 191.624 L 129.074 192.878 129.187 206.902 C 129.249 214.615,129.202 221.456,129.083 222.103 C 128.338 226.133,122.442 226.981,120.553 223.329 C 119.796 221.864,119.748 194.019,120.501 192.663 C 121.912 190.120,125.309 189.624,127.623 191.624 M311.709 211.508 C 314.177 213.033,314.036 217.221,311.113 229.192 C 308.600 239.482,306.813 242.142,302.981 241.300 C 299.695 240.579,298.831 237.899,300.326 233.067 C 301.316 229.865,302.295 226.007,303.313 221.296 C 303.489 220.481,303.844 218.342,304.103 216.542 C 304.907 210.947,307.753 209.063,311.709 211.508 M127.691 243.860 L 129.074 245.127 129.189 252.369 C 129.321 260.727,129.078 261.733,126.630 262.981 C 124.513 264.062,121.979 263.401,120.580 261.404 C 119.742 260.208,119.726 246.420,120.560 244.806 C 121.864 242.285,125.451 241.809,127.691 243.860 M297.320 253.120 C 300.231 255.788,299.334 258.281,292.378 266.852 C 283.869 277.337,279.902 279.850,276.864 276.680 C 274.394 274.101,274.918 271.851,278.939 267.778 C 283.126 263.536,290.370 254.598,290.370 253.674 C 290.370 251.759,295.399 251.359,297.320 253.120 M264.649 282.441 C 267.417 283.755,267.666 288.180,265.081 290.146 C 261.160 293.128,245.023 299.777,241.927 299.687 C 238.404 299.583,236.298 295.713,238.130 292.709 C 239.022 291.246,239.313 291.091,244.296 289.424 C 248.305 288.082,253.773 285.702,258.660 283.172 C 261.470 281.717,262.784 281.556,264.649 282.441 M126.053 288.864 C 121.273 291.034,119.241 296.707,121.591 301.323 C 125.934 309.858,138.889 306.801,138.889 297.242 C 138.889 290.700,131.964 286.180,126.053 288.864 M223.094 295.369 C 225.567 296.990,225.311 301.764,222.679 303.090 C 220.211 304.334,208.730 304.792,206.544 303.734 C 202.903 301.971,202.968 297.549,206.667 295.333 C 208.163 294.436,221.716 294.466,223.094 295.369 " stroke="none" fill="#e47c24" fill-rule="evenodd"></path><path id="path2" d="M121.663 101.967 C 118.749 104.880,119.339 119.275,122.430 120.684 C 124.306 121.538,126.255 121.227,127.630 119.852 L 128.889 118.593 128.889 114.111 L 128.889 109.630 133.093 109.630 C 138.623 109.630,140.724 108.357,140.733 105.000 C 140.742 101.455,139.049 100.770,130.241 100.754 L 122.889 100.741 121.663 101.967 M156.042 101.463 C 153.176 103.210,153.400 107.587,156.429 109.024 C 158.339 109.931,180.550 109.931,182.460 109.024 C 185.505 107.579,185.593 102.848,182.605 101.303 C 180.749 100.343,157.651 100.482,156.042 101.463 M200.280 101.391 C 197.898 102.867,197.570 106.260,199.612 108.302 L 200.729 109.418 206.938 109.694 C 210.354 109.846,214.898 110.153,217.037 110.375 C 219.176 110.597,222.127 110.877,223.596 110.997 L 226.266 111.216 227.577 109.904 C 229.540 107.942,229.333 104.565,227.162 103.143 C 224.720 101.543,202.382 100.087,200.280 101.391 M244.147 107.657 C 240.572 109.419,241.146 114.326,245.097 115.767 C 251.591 118.136,255.877 119.953,260.312 122.219 C 266.690 125.476,268.910 125.516,270.214 122.395 C 271.888 118.389,269.578 116.278,258.090 111.321 C 249.234 107.499,246.126 106.682,244.147 107.657 M282.778 129.532 C 278.397 130.622,278.345 134.600,282.653 139.087 C 286.006 142.578,288.763 146.034,291.735 150.470 C 294.564 154.691,295.522 155.556,297.365 155.554 C 300.172 155.551,302.254 153.031,301.707 150.297 C 300.978 146.652,287.272 129.630,285.066 129.630 C 284.758 129.630,284.283 129.566,284.012 129.488 C 283.740 129.411,283.185 129.430,282.778 129.532 M122.628 138.987 C 120.196 140.237,120.197 140.231,120.072 154.564 C 119.939 169.822,119.995 170.439,121.663 172.107 C 123.669 174.113,127.567 173.428,128.528 170.902 C 129.175 169.198,128.995 142.019,128.327 140.729 C 127.327 138.796,124.614 137.966,122.628 138.987 M303.113 168.294 C 301.497 169.910,301.496 171.142,303.103 177.963 C 303.631 180.204,304.326 184.454,304.648 187.407 C 304.969 190.361,305.317 193.345,305.421 194.037 C 306.018 198.015,311.674 198.752,313.563 195.098 C 315.035 192.253,311.639 171.061,309.290 168.432 C 307.631 166.575,304.893 166.514,303.113 168.294 M122.322 191.190 C 120.105 192.259,119.956 193.423,120.076 208.644 C 120.182 222.110,120.209 222.572,120.966 223.584 C 122.789 226.026,126.678 226.029,128.164 223.591 C 128.847 222.471,128.886 221.626,128.888 207.833 L 128.889 193.259 127.630 192.000 C 126.275 190.646,124.128 190.318,122.322 191.190 M307.073 211.209 C 305.359 212.090,304.857 213.330,303.890 219.074 C 302.955 224.628,301.802 229.366,300.383 233.484 C 298.362 239.351,302.776 243.738,306.845 239.907 C 309.757 237.167,314.434 216.176,312.807 213.154 C 311.703 211.104,309.037 210.200,307.073 211.209 M122.713 243.121 C 120.445 244.131,120.198 244.979,120.068 252.205 C 119.931 259.738,120.226 261.168,122.184 262.486 C 124.324 263.926,127.152 263.267,128.388 261.041 C 128.995 259.947,129.084 246.381,128.493 245.110 C 127.587 243.162,124.785 242.197,122.713 243.121 M292.037 252.636 C 291.630 252.835,290.269 254.452,289.014 256.228 C 286.354 259.992,280.524 266.829,277.835 269.338 C 273.747 273.153,276.016 278.712,281.196 277.574 C 284.687 276.807,298.519 259.889,298.519 256.386 C 298.519 253.233,294.986 251.190,292.037 252.636 M256.852 284.292 C 253.223 286.247,246.017 289.248,241.727 290.590 C 236.490 292.229,236.214 298.015,241.304 299.419 C 243.826 300.115,263.459 291.904,265.732 289.202 C 267.184 287.476,267.051 285.125,265.407 283.481 C 263.476 281.550,261.612 281.727,256.852 284.292 M211.580 295.160 C 205.912 295.403,204.593 296.109,204.200 299.109 C 203.785 302.277,206.093 304.071,210.556 304.047 C 223.299 303.979,226.647 302.152,223.971 296.728 C 223.013 294.785,222.324 294.698,211.580 295.160 " stroke="none" fill="#f9f6f3" fill-rule="evenodd"></path><path id="path3" d="M204.167 59.515 C 204.523 59.608,205.106 59.608,205.463 59.515 C 205.819 59.421,205.528 59.345,204.815 59.345 C 204.102 59.345,203.810 59.421,204.167 59.515 M96.388 199.167 L 96.480 326.481 96.574 199.353 L 96.668 72.225 149.538 72.130 L 202.407 72.034 149.352 71.943 L 96.296 71.852 96.388 199.167 M206.764 72.488 C 207.327 72.573,208.161 72.571,208.616 72.483 C 209.072 72.395,208.611 72.325,207.593 72.328 C 206.574 72.331,206.201 72.403,206.764 72.488 M212.685 72.848 C 213.042 72.941,213.625 72.941,213.981 72.848 C 214.338 72.755,214.046 72.679,213.333 72.679 C 212.620 72.679,212.329 72.755,212.685 72.848 M300.725 105.648 C 301.633 106.616,302.425 107.407,302.485 107.407 C 302.763 107.407,302.469 107.075,300.833 105.540 L 299.074 103.889 300.725 105.648 M309.444 114.444 C 310.240 115.259,310.974 115.926,311.076 115.926 C 311.178 115.926,310.610 115.259,309.815 114.444 C 309.019 113.630,308.285 112.963,308.183 112.963 C 308.081 112.963,308.649 113.630,309.444 114.444 M311.481 116.783 C 311.481 116.846,312.023 117.388,312.685 117.986 L 313.889 119.074 312.801 117.870 C 311.787 116.748,311.481 116.496,311.481 116.783 M198.993 126.939 C 199.966 127.016,201.466 127.015,202.326 126.937 C 203.186 126.860,202.389 126.797,200.556 126.798 C 198.722 126.799,198.019 126.863,198.993 126.939 M207.319 127.299 C 207.780 127.388,208.447 127.384,208.801 127.292 C 209.155 127.199,208.778 127.126,207.963 127.130 C 207.148 127.135,206.858 127.210,207.319 127.299 M242.253 135.326 C 242.630 135.672,247.037 137.769,247.037 137.603 C 247.037 137.396,242.758 135.185,242.356 135.185 C 242.215 135.185,242.168 135.249,242.253 135.326 M328.179 142.407 C 328.179 142.611,328.499 143.361,328.889 144.074 C 329.279 144.787,329.599 145.204,329.599 145.000 C 329.599 144.796,329.279 144.046,328.889 143.333 C 328.499 142.620,328.179 142.204,328.179 142.407 M264.958 152.332 C 265.743 153.290,266.463 154.074,266.557 154.074 C 266.810 154.074,264.464 151.167,263.960 150.856 C 263.724 150.710,264.173 151.374,264.958 152.332 M267.407 155.556 C 267.843 156.167,268.282 156.667,268.384 156.667 C 268.486 156.667,268.213 156.167,267.778 155.556 C 267.343 154.944,266.903 154.444,266.801 154.444 C 266.700 154.444,266.972 154.944,267.407 155.556 M271.296 161.852 C 271.812 162.870,272.318 163.704,272.420 163.704 C 272.522 163.704,272.183 162.870,271.667 161.852 C 271.151 160.833,270.645 160.000,270.543 160.000 C 270.441 160.000,270.780 160.833,271.296 161.852 M272.619 164.259 C 272.619 164.463,272.857 165.046,273.148 165.556 C 273.439 166.065,273.677 166.315,273.677 166.111 C 273.677 165.907,273.439 165.324,273.148 164.815 C 272.857 164.306,272.619 164.056,272.619 164.259 M338.612 184.259 C 338.616 185.074,338.692 185.364,338.780 184.903 C 338.869 184.442,338.866 183.776,338.773 183.422 C 338.680 183.068,338.608 183.444,338.612 184.259 M278.975 187.778 C 278.975 188.491,279.051 188.782,279.144 188.426 C 279.237 188.069,279.237 187.486,279.144 187.130 C 279.051 186.773,278.975 187.065,278.975 187.778 M339.016 190.556 C 339.017 192.185,339.082 192.806,339.161 191.935 C 339.239 191.064,339.238 189.730,339.158 188.972 C 339.079 188.213,339.015 188.926,339.016 190.556 M279.408 197.037 C 279.408 200.194,279.465 201.486,279.535 199.907 C 279.604 198.329,279.604 195.745,279.535 194.167 C 279.465 192.588,279.408 193.880,279.408 197.037 M351.945 196.852 C 351.949 197.667,352.025 197.956,352.114 197.496 C 352.202 197.035,352.199 196.368,352.106 196.014 C 352.014 195.660,351.941 196.037,351.945 196.852 M339.016 203.519 C 339.017 205.148,339.082 205.769,339.161 204.898 C 339.239 204.026,339.238 202.693,339.158 201.935 C 339.079 201.176,339.015 201.889,339.016 203.519 M278.975 206.296 C 278.975 207.009,279.051 207.301,279.144 206.944 C 279.237 206.588,279.237 206.005,279.144 205.648 C 279.051 205.292,278.975 205.583,278.975 206.296 M338.612 209.815 C 338.616 210.630,338.692 210.919,338.780 210.459 C 338.869 209.998,338.866 209.331,338.773 208.977 C 338.680 208.623,338.608 209.000,338.612 209.815 M266.595 241.111 C 265.437 242.741,264.564 244.074,264.653 244.074 C 264.848 244.074,268.061 239.744,268.564 238.804 C 269.264 237.496,268.658 238.206,266.595 241.111 M255.926 252.643 L 254.259 254.152 255.828 252.975 C 257.193 251.951,258.069 251.087,257.707 251.122 C 257.644 251.128,256.843 251.813,255.926 252.643 M180.457 268.047 L 180.370 278.502 173.611 278.612 L 166.852 278.721 173.623 278.805 C 178.801 278.869,180.436 278.779,180.573 278.421 C 180.672 278.163,180.706 273.371,180.648 267.773 L 180.543 257.593 180.457 268.047 M204.722 270.261 C 205.181 270.350,205.931 270.350,206.389 270.261 C 206.847 270.173,206.472 270.101,205.556 270.101 C 204.639 270.101,204.264 270.173,204.722 270.261 M195.093 270.643 C 196.162 270.718,197.912 270.718,198.981 270.643 C 200.051 270.569,199.176 270.507,197.037 270.507 C 194.898 270.507,194.023 270.569,195.093 270.643 M131.920 278.796 C 135.929 278.855,142.596 278.856,146.735 278.796 C 150.873 278.736,147.593 278.687,139.444 278.687 C 131.296 278.687,127.910 278.736,131.920 278.796 M116.722 281.854 C 115.877 282.467,115.185 283.058,115.185 283.169 C 115.185 283.343,117.272 281.923,118.315 281.039 C 119.192 280.295,118.108 280.850,116.722 281.854 M306.284 286.893 C 305.170 288.036,304.593 288.758,305.000 288.498 C 305.736 288.027,308.755 284.815,308.461 284.815 C 308.377 284.815,307.397 285.750,306.284 286.893 M128.796 288.039 C 129.255 288.127,130.005 288.127,130.463 288.039 C 130.921 287.951,130.546 287.879,129.630 287.879 C 128.713 287.879,128.338 287.951,128.796 288.039 M302.202 291.019 L 300.926 292.407 302.315 291.131 C 303.079 290.429,303.704 289.804,303.704 289.742 C 303.704 289.459,303.390 289.726,302.202 291.019 M298.690 294.537 L 296.852 296.481 298.796 294.644 C 300.603 292.936,300.911 292.593,300.634 292.593 C 300.576 292.593,299.701 293.468,298.690 294.537 M138.982 297.222 C 138.986 298.037,139.062 298.327,139.151 297.866 C 139.239 297.405,139.236 296.739,139.143 296.385 C 139.051 296.030,138.978 296.407,138.982 297.222 M295.347 297.500 L 294.259 298.704 295.463 297.616 C 296.125 297.018,296.667 296.476,296.667 296.412 C 296.667 296.126,296.361 296.378,295.347 297.500 M110.000 304.216 C 110.000 304.613,111.102 306.667,111.315 306.667 C 111.417 306.667,111.225 306.125,110.888 305.463 C 110.201 304.111,110.000 303.829,110.000 304.216 M284.890 305.344 C 283.170 306.560,282.928 306.908,284.380 306.076 C 285.058 305.688,285.787 305.162,286.000 304.907 C 286.547 304.253,286.290 304.354,284.890 305.344 M128.987 306.562 C 129.550 306.647,130.383 306.645,130.838 306.557 C 131.294 306.469,130.833 306.399,129.815 306.402 C 128.796 306.405,128.424 306.477,128.987 306.562 M270.000 314.074 C 268.880 314.666,268.094 315.158,268.253 315.168 C 268.647 315.191,272.222 313.367,272.222 313.142 C 272.222 312.894,272.274 312.873,270.000 314.074 M131.920 315.833 C 135.929 315.893,142.596 315.893,146.735 315.833 C 150.873 315.773,147.593 315.724,139.444 315.724 C 131.296 315.724,127.910 315.773,131.920 315.833 M173.698 315.829 L 180.360 315.943 180.466 328.064 L 180.571 340.185 180.563 327.963 L 180.556 315.741 173.796 315.728 L 167.036 315.715 173.698 315.829 M221.764 327.299 C 222.224 327.388,222.891 327.384,223.245 327.292 C 223.599 327.199,223.222 327.126,222.407 327.130 C 221.593 327.135,221.303 327.210,221.764 327.299 M216.944 327.669 C 217.403 327.757,218.153 327.757,218.611 327.669 C 219.069 327.581,218.694 327.508,217.778 327.508 C 216.861 327.508,216.486 327.581,216.944 327.669 M200.854 328.055 C 203.259 328.119,207.093 328.119,209.373 328.054 C 211.653 327.989,209.685 327.936,205.000 327.937 C 200.315 327.937,198.449 327.990,200.854 328.055 M193.245 340.632 C 193.706 340.721,194.372 340.718,194.727 340.625 C 195.081 340.532,194.704 340.460,193.889 340.464 C 193.074 340.468,192.784 340.544,193.245 340.632 " stroke="none" fill="#8c3314" fill-rule="evenodd"></path><path id="path4" d="M111.759 59.167 C 127.292 59.220,152.708 59.220,168.241 59.167 C 183.773 59.113,171.065 59.069,140.000 59.069 C 108.935 59.069,96.227 59.113,111.759 59.167 M127.518 100.646 C 129.311 100.714,132.144 100.714,133.814 100.646 C 135.485 100.577,134.019 100.521,130.556 100.522 C 127.093 100.522,125.726 100.578,127.518 100.646 M163.796 100.647 C 167.005 100.709,172.255 100.709,175.463 100.647 C 178.671 100.586,176.046 100.535,169.630 100.535 C 163.213 100.535,160.588 100.586,163.796 100.647 M121.149 102.050 C 120.517 102.770,120.015 103.728,120.033 104.180 C 120.059 104.811,120.145 104.730,120.406 103.827 C 120.593 103.182,121.258 102.224,121.883 101.697 C 122.508 101.171,122.858 100.741,122.659 100.741 C 122.461 100.741,121.782 101.330,121.149 102.050 M209.722 101.011 C 210.486 101.090,211.736 101.090,212.500 101.011 C 213.264 100.931,212.639 100.865,211.111 100.865 C 209.583 100.865,208.958 100.931,209.722 101.011 M215.467 101.373 C 215.928 101.462,216.595 101.458,216.949 101.366 C 217.303 101.273,216.926 101.200,216.111 101.205 C 215.296 101.209,215.007 101.284,215.467 101.373 M183.940 102.407 C 184.796 103.870,184.815 103.892,184.815 103.436 C 184.815 103.221,184.472 102.652,184.052 102.171 L 183.289 101.296 183.940 102.407 M219.290 101.618 C 219.375 101.692,220.528 101.846,221.852 101.958 C 223.369 102.087,223.848 102.053,223.148 101.866 C 222.017 101.564,219.009 101.370,219.290 101.618 M198.009 103.903 C 197.882 104.234,197.795 104.866,197.816 105.308 C 197.840 105.816,197.965 105.635,198.158 104.817 C 198.481 103.441,198.393 102.901,198.009 103.903 M153.790 105.185 C 153.790 105.898,153.866 106.190,153.959 105.833 C 154.052 105.477,154.052 104.894,153.959 104.537 C 153.866 104.181,153.790 104.472,153.790 105.185 M184.901 105.185 C 184.901 105.898,184.977 106.190,185.070 105.833 C 185.163 105.477,185.163 104.894,185.070 104.537 C 184.977 104.181,184.901 104.472,184.901 105.185 M228.982 106.852 C 228.986 107.667,229.062 107.956,229.151 107.496 C 229.239 107.035,229.236 106.368,229.143 106.014 C 229.051 105.660,228.978 106.037,228.982 106.852 M198.177 106.690 C 198.161 107.008,198.690 107.758,199.352 108.357 L 200.556 109.444 199.583 108.333 C 199.048 107.722,198.520 106.972,198.409 106.667 C 198.235 106.188,198.203 106.191,198.177 106.690 M184.444 106.993 C 184.444 107.240,183.986 107.875,183.426 108.403 C 182.583 109.197,182.549 109.288,183.232 108.932 C 184.120 108.469,185.012 107.111,184.660 106.758 C 184.541 106.640,184.444 106.746,184.444 106.993 M139.796 107.808 C 139.660 108.028,139.025 108.527,138.386 108.918 C 137.746 109.308,137.428 109.627,137.679 109.628 C 138.153 109.630,140.753 107.437,140.300 107.418 C 140.159 107.412,139.932 107.588,139.796 107.808 M243.241 107.807 C 242.251 108.384,241.475 110.175,241.537 111.741 C 241.585 112.954,241.612 112.995,241.731 112.037 C 242.005 109.840,242.267 109.182,243.217 108.302 C 244.257 107.339,244.263 107.212,243.241 107.807 M248.704 107.778 C 249.111 107.953,249.694 108.096,250.000 108.096 C 250.350 108.096,250.282 107.978,249.815 107.778 C 249.407 107.603,248.824 107.459,248.519 107.459 C 248.168 107.459,248.237 107.577,248.704 107.778 M227.810 109.771 L 226.916 110.926 227.975 109.919 C 228.558 109.365,228.960 108.845,228.869 108.764 C 228.778 108.683,228.301 109.136,227.810 109.771 M128.951 113.981 C 129.016 118.491,129.172 117.976,129.345 112.684 C 129.400 111.003,129.319 109.628,129.167 109.629 C 129.014 109.629,128.917 111.588,128.951 113.981 M206.195 109.897 C 206.853 109.979,208.020 109.980,208.788 109.900 C 209.556 109.820,209.019 109.753,207.593 109.751 C 206.167 109.750,205.538 109.815,206.195 109.897 M211.759 110.268 C 212.421 110.350,213.505 110.350,214.167 110.268 C 214.829 110.186,214.287 110.119,212.963 110.119 C 211.639 110.119,211.097 110.186,211.759 110.268 M217.500 110.626 C 217.856 110.719,218.440 110.719,218.796 110.626 C 219.153 110.533,218.861 110.456,218.148 110.456 C 217.435 110.456,217.144 110.533,217.500 110.626 M220.282 111.003 C 220.743 111.091,221.409 111.088,221.764 110.995 C 222.118 110.903,221.741 110.830,220.926 110.834 C 220.111 110.838,219.821 110.914,220.282 111.003 M258.889 111.667 C 259.398 111.958,259.981 112.196,260.185 112.196 C 260.389 112.196,260.139 111.958,259.630 111.667 C 259.120 111.376,258.537 111.137,258.333 111.137 C 258.130 111.137,258.380 111.376,258.889 111.667 M243.243 115.093 C 243.723 115.551,244.314 115.921,244.558 115.915 C 244.801 115.908,244.667 115.718,244.259 115.492 C 243.852 115.266,243.260 114.896,242.945 114.670 C 242.629 114.444,242.764 114.634,243.243 115.093 M265.926 114.981 C 265.926 115.083,266.426 115.425,267.037 115.741 C 267.648 116.057,268.148 116.232,268.148 116.130 C 268.148 116.028,267.648 115.686,267.037 115.370 C 266.426 115.054,265.926 114.879,265.926 114.981 M247.222 116.810 C 247.833 117.088,248.750 117.418,249.259 117.543 C 250.003 117.725,249.966 117.671,249.074 117.264 C 248.463 116.986,247.546 116.656,247.037 116.531 C 246.293 116.349,246.330 116.404,247.222 116.810 M127.810 119.771 L 126.916 120.926 127.975 119.919 C 128.558 119.365,128.960 118.845,128.869 118.764 C 128.778 118.683,128.301 119.136,127.810 119.771 M255.185 120.000 C 255.898 120.390,256.648 120.710,256.852 120.710 C 257.056 120.710,256.639 120.390,255.926 120.000 C 255.213 119.610,254.463 119.290,254.259 119.290 C 254.056 119.290,254.472 119.610,255.185 120.000 M122.386 120.898 C 122.808 121.241,123.725 121.461,124.608 121.432 L 126.111 121.383 124.444 121.145 C 123.528 121.014,122.528 120.774,122.222 120.611 C 121.917 120.448,121.990 120.578,122.386 120.898 M260.370 122.392 C 260.370 122.494,261.037 122.918,261.852 123.333 C 262.667 123.749,263.333 124.006,263.333 123.904 C 263.333 123.802,262.667 123.379,261.852 122.963 C 261.037 122.547,260.370 122.291,260.370 122.392 M285.597 129.722 C 285.688 129.773,287.174 131.148,288.900 132.778 L 292.037 135.741 289.083 132.685 C 287.458 131.005,285.972 129.630,285.780 129.630 C 285.589 129.630,285.506 129.671,285.597 129.722 M279.288 134.837 C 279.272 135.154,279.518 135.737,279.835 136.133 C 280.402 136.840,280.406 136.840,280.070 136.111 C 279.883 135.704,279.637 135.120,279.524 134.815 C 279.346 134.335,279.314 134.338,279.288 134.837 M295.577 140.598 C 297.754 143.423,298.427 144.198,297.952 143.333 C 297.429 142.381,294.447 138.564,294.019 138.299 C 293.796 138.161,294.497 139.196,295.577 140.598 M125.957 138.631 C 126.042 138.692,126.611 139.035,127.222 139.393 L 128.333 140.044 127.459 139.281 C 126.978 138.862,126.409 138.519,126.194 138.519 C 125.978 138.519,125.872 138.569,125.957 138.631 M120.959 140.028 C 120.431 140.655,120.011 141.447,120.023 141.788 C 120.039 142.187,120.178 142.079,120.416 141.482 C 120.619 140.973,121.138 140.181,121.568 139.722 C 121.999 139.264,122.254 138.889,122.135 138.889 C 122.015 138.889,121.486 139.402,120.959 140.028 M283.688 140.463 C 285.223 142.098,285.556 142.392,285.556 142.114 C 285.556 142.055,284.764 141.263,283.796 140.355 L 282.037 138.704 283.688 140.463 M129.057 155.926 C 129.057 163.769,129.106 166.977,129.166 163.056 C 129.226 159.134,129.226 152.718,129.166 148.796 C 129.106 144.875,129.057 148.083,129.057 155.926 M286.810 144.184 C 287.595 145.142,288.315 145.926,288.409 145.926 C 288.662 145.926,286.316 143.019,285.812 142.708 C 285.576 142.561,286.025 143.226,286.810 144.184 M299.710 146.478 C 300.553 147.800,301.311 148.812,301.395 148.728 C 301.557 148.567,298.602 144.074,298.334 144.074 C 298.248 144.074,298.867 145.156,299.710 146.478 M291.731 151.019 C 293.708 154.092,294.967 155.529,295.698 155.547 C 295.878 155.552,295.592 155.214,295.062 154.797 C 294.532 154.380,293.180 152.630,292.057 150.908 C 290.935 149.187,289.933 147.778,289.831 147.778 C 289.730 147.778,290.584 149.236,291.731 151.019 M252.577 157.500 C 253.485 158.468,254.277 159.259,254.336 159.259 C 254.614 159.259,254.320 158.927,252.685 157.392 L 250.926 155.741 252.577 157.500 M306.431 167.027 C 307.422 167.209,308.672 167.740,309.209 168.206 L 310.185 169.053 309.210 168.005 C 308.450 167.187,307.838 166.927,306.432 166.826 L 304.630 166.696 306.431 167.027 M302.594 168.332 C 302.116 168.840,301.796 169.318,301.881 169.394 C 301.967 169.470,302.425 169.054,302.899 168.470 C 303.959 167.162,303.772 167.078,302.594 168.332 M301.508 171.512 C 301.522 172.412,301.673 173.481,301.843 173.889 C 302.029 174.336,302.072 173.749,301.951 172.407 C 301.709 169.732,301.472 169.253,301.508 171.512 M120.376 170.957 C 120.384 171.425,120.792 171.939,121.667 172.581 C 122.218 172.987,122.171 172.845,121.481 172.026 C 120.972 171.421,120.514 170.856,120.463 170.772 C 120.412 170.687,120.373 170.770,120.376 170.957 M127.075 172.439 C 126.383 172.931,125.998 173.333,126.221 173.333 C 126.443 173.333,127.093 172.922,127.665 172.419 C 128.973 171.268,128.711 171.277,127.075 172.439 M304.466 187.994 C 304.478 188.792,304.632 190.111,304.809 190.926 C 305.048 192.024,305.078 191.689,304.925 189.630 C 304.701 186.618,304.431 185.657,304.466 187.994 M313.805 188.889 C 313.805 189.806,313.877 190.181,313.965 189.722 C 314.053 189.264,314.053 188.514,313.965 188.056 C 313.877 187.597,313.805 187.972,313.805 188.889 M122.386 190.946 C 121.701 191.494,121.709 191.502,122.539 191.097 C 123.020 190.864,124.129 190.729,125.004 190.799 C 125.880 190.869,126.519 190.801,126.424 190.648 C 126.110 190.140,123.116 190.361,122.386 190.946 M351.973 193.148 C 351.975 194.574,352.042 195.112,352.122 194.344 C 352.202 193.575,352.201 192.408,352.119 191.751 C 352.037 191.094,351.972 191.722,351.973 193.148 M127.810 192.081 C 128.301 192.716,128.778 193.169,128.869 193.088 C 128.960 193.007,128.558 192.487,127.975 191.933 L 126.916 190.926 127.810 192.081 M120.583 192.540 C 120.262 193.160,120.000 193.877,120.000 194.134 C 120.000 194.391,120.331 193.952,120.735 193.159 C 121.139 192.366,121.402 191.649,121.318 191.565 C 121.234 191.481,120.903 191.920,120.583 192.540 M129.057 208.148 C 129.057 215.991,129.106 219.199,129.166 215.278 C 129.226 211.356,129.226 204.940,129.166 201.019 C 129.106 197.097,129.057 200.306,129.057 208.148 M305.200 194.574 C 305.168 196.049,307.534 197.783,309.500 197.726 L 311.296 197.673 309.402 197.442 C 307.266 197.182,306.401 196.611,305.698 195.000 C 305.371 194.248,305.209 194.110,305.200 194.574 M313.026 195.884 L 312.164 197.222 313.163 196.244 C 313.713 195.705,314.101 195.103,314.026 194.905 C 313.950 194.707,313.501 195.148,313.026 195.884 M351.973 200.556 C 351.975 201.981,352.042 202.519,352.122 201.751 C 352.202 200.983,352.201 199.816,352.119 199.158 C 352.037 198.501,351.972 199.130,351.973 200.556 M305.403 212.251 C 304.876 212.877,304.455 213.669,304.468 214.010 C 304.483 214.409,304.623 214.301,304.861 213.704 C 305.064 213.195,305.582 212.403,306.013 211.945 C 306.443 211.486,306.698 211.111,306.579 211.111 C 306.460 211.111,305.931 211.624,305.403 212.251 M312.246 212.037 C 312.246 212.241,312.490 212.731,312.790 213.126 C 313.089 213.522,313.333 213.679,313.333 213.475 C 313.333 213.271,313.089 212.781,312.790 212.386 C 312.490 211.990,312.246 211.833,312.246 212.037 M313.419 215.556 C 313.419 216.269,313.495 216.560,313.589 216.204 C 313.682 215.847,313.682 215.264,313.589 214.907 C 313.495 214.551,313.419 214.843,313.419 215.556 M121.762 224.722 C 122.241 225.181,122.916 225.545,123.261 225.532 C 123.679 225.516,123.581 225.386,122.971 225.142 C 122.466 224.941,121.791 224.576,121.471 224.332 C 121.151 224.088,121.282 224.264,121.762 224.722 M126.667 224.860 C 125.954 225.242,125.644 225.555,125.977 225.555 C 126.311 225.555,126.978 225.228,127.459 224.827 C 128.518 223.945,128.362 223.951,126.667 224.860 M302.407 225.185 C 302.267 225.825,302.229 226.426,302.323 226.521 C 302.418 226.615,302.601 226.160,302.731 225.509 C 302.862 224.859,302.899 224.258,302.816 224.174 C 302.732 224.090,302.548 224.545,302.407 225.185 M309.841 232.804 C 309.705 233.347,309.665 233.863,309.752 233.950 C 309.840 234.037,310.023 233.664,310.159 233.122 C 310.295 232.579,310.335 232.063,310.248 231.976 C 310.160 231.889,309.977 232.261,309.841 232.804 M129.044 252.963 C 129.044 256.935,129.098 258.560,129.165 256.574 C 129.232 254.588,129.232 251.338,129.165 249.352 C 129.098 247.366,129.044 248.991,129.044 252.963 M292.015 252.428 C 291.321 252.984,291.324 252.991,292.105 252.613 C 293.831 251.779,295.907 252.129,297.259 253.481 C 297.952 254.174,298.519 254.608,298.519 254.446 C 298.519 252.644,293.636 251.129,292.015 252.428 M288.889 255.926 C 288.454 256.537,288.181 257.037,288.283 257.037 C 288.385 257.037,288.824 256.537,289.259 255.926 C 289.694 255.315,289.967 254.815,289.865 254.815 C 289.763 254.815,289.324 255.315,288.889 255.926 M298.612 256.481 C 298.616 257.296,298.692 257.586,298.780 257.125 C 298.869 256.665,298.866 255.998,298.773 255.644 C 298.680 255.290,298.608 255.667,298.612 256.481 M199.352 257.663 C 199.708 257.756,200.292 257.756,200.648 257.663 C 201.005 257.570,200.713 257.493,200.000 257.493 C 199.287 257.493,198.995 257.570,199.352 257.663 M287.356 258.056 C 286.181 259.474,285.758 260.132,286.186 259.875 C 286.660 259.591,288.305 257.407,288.046 257.407 C 287.961 257.407,287.651 257.699,287.356 258.056 M297.492 259.471 C 297.034 260.169,296.733 260.741,296.823 260.741 C 297.081 260.741,298.615 258.492,298.462 258.339 C 298.386 258.263,297.950 258.773,297.492 259.471 M120.032 259.887 C 120.014 260.334,120.375 261.092,120.833 261.572 C 121.292 262.051,121.449 262.162,121.182 261.817 C 120.916 261.473,120.555 260.714,120.381 260.132 C 120.118 259.254,120.058 259.213,120.032 259.887 M283.471 262.853 C 282.275 264.219,281.487 265.220,281.721 265.077 C 282.244 264.758,286.068 260.370,285.823 260.370 C 285.725 260.370,284.667 261.488,283.471 262.853 M295.218 262.870 C 294.308 264.202,294.252 264.359,294.989 263.519 C 295.969 262.400,296.809 261.111,296.557 261.111 C 296.483 261.111,295.880 261.903,295.218 262.870 M279.338 267.361 C 276.974 269.911,276.982 270.061,279.360 267.790 C 280.527 266.677,281.481 265.719,281.481 265.661 C 281.481 265.270,280.706 265.885,279.338 267.361 M289.831 269.537 C 288.422 271.116,287.816 271.907,288.484 271.296 C 289.716 270.170,292.774 266.667,292.527 266.667 C 292.452 266.667,291.239 267.958,289.831 269.537 M276.829 276.574 C 277.427 277.236,278.177 277.765,278.495 277.749 C 278.994 277.723,278.997 277.691,278.519 277.517 C 278.213 277.406,277.463 276.877,276.852 276.343 L 275.741 275.370 276.829 276.574 M261.764 282.114 C 262.224 282.202,262.891 282.199,263.245 282.106 C 263.599 282.014,263.222 281.941,262.407 281.945 C 261.593 281.949,261.303 282.025,261.764 282.114 M264.105 282.315 C 264.190 282.366,264.718 282.811,265.278 283.305 C 265.838 283.799,266.296 284.097,266.296 283.968 C 266.296 283.607,264.723 282.222,264.313 282.222 C 264.114 282.222,264.020 282.264,264.105 282.315 M252.593 286.111 C 251.676 286.602,251.093 287.004,251.296 287.004 C 251.500 287.004,252.417 286.602,253.333 286.111 C 254.250 285.620,254.833 285.219,254.630 285.219 C 254.426 285.219,253.509 285.620,252.593 286.111 M263.241 290.953 C 261.856 291.704,261.940 292.017,263.333 291.296 C 263.944 290.980,264.444 290.643,264.444 290.546 C 264.444 290.308,264.405 290.321,263.241 290.953 M237.501 295.000 C 237.505 295.815,237.581 296.105,237.669 295.644 C 237.758 295.183,237.755 294.516,237.662 294.162 C 237.569 293.808,237.497 294.185,237.501 295.000 M255.556 294.815 C 254.843 295.205,254.426 295.525,254.630 295.525 C 254.833 295.525,255.583 295.205,256.296 294.815 C 257.009 294.424,257.426 294.105,257.222 294.105 C 257.019 294.105,256.269 294.424,255.556 294.815 M219.352 294.700 C 219.708 294.793,220.292 294.793,220.648 294.700 C 221.005 294.607,220.713 294.530,220.000 294.530 C 219.287 294.530,218.995 294.607,219.352 294.700 M209.922 295.089 C 211.203 295.162,213.203 295.161,214.366 295.088 C 215.530 295.015,214.481 294.955,212.037 294.956 C 209.593 294.957,208.641 295.017,209.922 295.089 M252.037 296.323 C 251.222 296.715,250.972 296.932,251.481 296.805 C 252.530 296.544,254.455 295.579,253.889 295.598 C 253.685 295.605,252.852 295.931,252.037 296.323 M204.085 300.816 C 204.057 301.473,204.944 302.864,205.675 303.309 L 206.481 303.801 205.699 302.919 C 205.268 302.434,204.732 301.704,204.506 301.296 C 204.281 300.889,204.092 300.673,204.085 300.816 M215.653 303.969 C 216.216 304.055,217.050 304.052,217.505 303.964 C 217.961 303.877,217.500 303.807,216.481 303.810 C 215.463 303.812,215.090 303.884,215.653 303.969 M209.167 304.345 C 210.032 304.423,211.449 304.423,212.315 304.345 C 213.181 304.267,212.472 304.203,210.741 304.203 C 209.009 304.203,208.301 304.267,209.167 304.345 M190.833 340.626 C 191.190 340.719,191.773 340.719,192.130 340.626 C 192.486 340.533,192.194 340.456,191.481 340.456 C 190.769 340.456,190.477 340.533,190.833 340.626 M203.807 341.013 C 204.781 341.090,206.281 341.089,207.141 341.011 C 208.000 340.934,207.204 340.871,205.370 340.872 C 203.537 340.873,202.834 340.937,203.807 341.013 " stroke="none" fill="#d39770" fill-rule="evenodd"></path></g></svg>